<?xml version="1.0" standalone="no"?>
<!-- Generator: Adobe Fireworks 10, Export SVG Extension by Aaron Beall (http://fireworks.abeall.com) . Version: 0.6.1  -->
<!DOCTYPE svg PUBLIC "-//W3C//DTD SVG 1.1//EN" "http://www.w3.org/Graphics/SVG/1.1/DTD/svg11.dtd">
<svg id="Untitled-P%E1gina%201" viewBox="0 0 281 138" style="background-color:#ffffff00" version="1.1"
	xmlns="http://www.w3.org/2000/svg" xmlns:xlink="http://www.w3.org/1999/xlink" xml:space="preserve"
	x="0px" y="0px" width="281px" height="138px"
>
	<g id="Capa%201">
		<path d="M 60.7344 95.5723 L 32.5601 95.5723 L 1 0.7612 L 27.5693 0.7612 L 47.0039 66.3281 L 47.3613 66.3281 L 66.7549 0.7612 L 90.6479 0.7612 L 90.6479 7.2012 L 60.7344 95.5723 Z" fill="#fcfcfd"/>
		<path d="M 47.0039 66.3281 L 55.5889 95.5723 L 60.7344 95.5723 L 90.6479 7.2012 L 90.6479 0.7612 L 66.7549 0.7612 L 47.0039 66.3281 Z" fill="#bebcbc"/>
		<path d="M 66.7549 0.7612 L 90.6479 0.7612 L 90.6479 15.8662 L 91.0044 15.8662 C 97.6011 6.416 107.229 0.8877 119.1772 0.8877 C 130.7676 0.8877 141.1094 5.1675 146.1016 16.2236 C 151.4502 8.1982 161.0801 0.8877 173.918 0.8877 C 193.5313 0.8877 207.6182 9.9824 207.6182 33.876 L 207.6182 95.5723 L 182.2988 95.5723 L 182.2988 43.3271 C 182.2988 31.0225 181.2285 20.8579 166.7861 20.8579 C 152.5215 20.8579 149.8438 32.6279 149.8438 44.2178 L 149.8438 95.5723 L 124.5264 95.5723 L 124.5264 43.8613 C 124.5264 33.1631 125.2393 20.8579 109.1914 20.8579 C 104.1982 20.8579 92.0737 24.0684 92.0737 42.0791 L 92.0737 95.5723 L 66.7549 95.5723 L 66.7549 0.7612 Z" fill="#fcfcfd"/>
		<path d="M 207.6182 95.5723 L 207.8633 55.7656 C 207.8633 55.7656 208.0889 24.0439 202.9102 14.1484 C 189.7324 57.1748 188.1602 62.4805 182.2871 82.1621 C 182.4941 88.3721 182.3125 85.6191 182.2988 95.5723 C 192.543 95.6084 197.1631 95.7217 207.6182 95.5723 Z" fill="#bebcbc"/>
		<path d="M 255.6797 34.9443 C 254.0742 24.8652 247.4785 22.4521 236.9561 22.4521 C 220.7314 22.4521 215.3828 35.4658 215.3828 48.6699 C 215.3828 61.5273 220.5527 74.0195 236.4219 74.0195 C 248.1895 74.0195 254.9678 69.6943 256.5713 58.7461 L 281 58.7461 C 277.79 82.5508 260.8506 95.5811 236.6025 95.5811 C 208.7852 95.5811 190.0625 76.4707 190.0625 49.5381 C 190.0625 13.0581 216.2686 0.8877 237.1348 0.8877 C 258.8906 0.8877 278.8594 12.0078 280.4648 34.9443 L 255.6797 34.9443 Z" fill="#fcfcfd"/>
		<path d="M 1.981 111.8057 L 1.981 136.2852 L 4.8413 136.2852 L 4.8413 137.2393 L 0.8823 137.2393 L 0.8823 110.8516 L 4.8413 110.8516 L 4.8413 111.8057 L 1.981 111.8057 Z" fill="#c9c9c9"/>
		<path d="M 39.0391 124.0957 C 41.9048 125.2939 44.0415 126.1797 44.0415 129.7236 C 44.0415 133.084 41.8521 135.2207 38.4395 135.2207 C 34.8696 135.2207 32.9937 132.6934 33.0723 129.2275 L 34.7402 129.2275 C 34.7139 131.6768 35.729 133.71 38.4131 133.71 C 40.7842 133.71 42.3477 132.1992 42.3477 129.7754 C 42.3477 126.8301 40.2109 126.3623 37.9702 125.4766 C 35.3389 124.4346 33.4629 123.2617 33.4629 120.1357 C 33.4629 116.9561 35.3652 114.7422 38.5435 114.7422 C 41.5923 114.7422 43.5977 116.8525 43.5195 119.9268 L 41.8784 119.9268 C 41.9824 117.7646 40.7065 116.2529 38.5171 116.2529 C 36.3027 116.2529 35.1567 117.8945 35.1567 120.0303 C 35.1567 121.959 35.7817 122.7148 37.5273 123.4697 L 39.0391 124.0957 Z" fill="#2cccb9"/>
		<path d="M 62.3623 115.21 L 64.0562 115.21 L 64.0562 129.3848 C 64.0562 132.1465 64.6812 133.71 67.626 133.71 C 70.6738 133.71 71.3516 131.8594 71.3516 129.2275 L 71.3516 115.21 L 73.0449 115.21 L 73.0449 128.8115 C 73.0449 132.6152 71.8984 135.2207 67.6782 135.2207 C 63.9258 135.2207 62.3623 133.1621 62.3623 129.5928 L 62.3623 115.21 Z" fill="#2cccb9"/>
		<path d="M 91.7451 134.751 L 91.7451 115.21 L 96.0176 115.21 C 97.3472 115.21 98.8838 115.3418 99.9263 116.2793 C 100.9941 117.2178 101.4116 118.5449 101.4116 119.9785 C 101.4116 121.9326 100.6816 123.7041 98.7539 124.4082 L 98.7539 124.46 C 101.0205 125.0596 101.958 126.8301 101.958 129.124 C 101.958 134.0742 98.6489 134.751 94.4287 134.751 L 91.7451 134.751 ZM 95.1846 123.7559 C 97.9463 123.7559 99.7178 123.1836 99.7178 120.0303 C 99.7178 116.9561 97.5811 116.7217 95.0278 116.7217 L 93.438 116.7217 L 93.438 123.7559 L 95.1846 123.7559 ZM 93.438 125.2676 L 93.438 133.2402 L 95.5483 133.2402 C 98.5454 133.2402 100.2642 132.4326 100.2642 129.0977 C 100.2642 125.5801 98.0503 125.2676 95.2104 125.2676 L 93.438 125.2676 Z" fill="#2cccb9"/>
		<path d="M 126.9746 115.21 L 132.2129 134.751 L 130.4922 134.751 L 128.9541 128.7334 L 123.0137 128.7334 L 121.4263 134.751 L 119.7852 134.751 L 125.0205 115.21 L 126.9746 115.21 ZM 128.5898 127.2217 L 126.0117 117.3467 L 125.959 117.3467 L 123.3789 127.2217 L 128.5898 127.2217 Z" fill="#2cccb9"/>
		<path d="M 155.6289 124.0957 C 158.4951 125.2939 160.6318 126.1797 160.6318 129.7236 C 160.6318 133.084 158.4434 135.2207 155.0293 135.2207 C 151.46 135.2207 149.584 132.6934 149.6631 129.2275 L 151.3301 129.2275 C 151.3047 131.6768 152.3203 133.71 155.0039 133.71 C 157.375 133.71 158.9375 132.1992 158.9375 129.7754 C 158.9375 126.8301 156.8008 126.3623 154.5605 125.4766 C 151.9297 124.4346 150.0527 123.2617 150.0527 120.1357 C 150.0527 116.9561 151.9551 114.7422 155.1338 114.7422 C 158.1826 114.7422 160.1875 116.8525 160.1113 119.9268 L 158.4688 119.9268 C 158.5732 117.7646 157.2969 116.2529 155.1084 116.2529 C 152.8926 116.2529 151.7471 117.8945 151.7471 120.0303 C 151.7471 121.959 152.3721 122.7148 154.1172 123.4697 L 155.6289 124.0957 Z" fill="#2cccb9"/>
		<path d="M 179.0176 116.7217 L 179.0176 115.21 L 189.5703 115.21 L 189.5703 116.7217 L 185.1406 116.7217 L 185.1406 134.751 L 183.4473 134.751 L 183.4473 116.7217 L 179.0176 116.7217 Z" fill="#2cccb9"/>
		<path d="M 214.418 115.21 L 219.6563 134.751 L 217.9355 134.751 L 216.3984 128.7334 L 210.457 128.7334 L 208.8691 134.751 L 207.2275 134.751 L 212.4648 115.21 L 214.418 115.21 ZM 216.0342 127.2217 L 213.4551 117.3467 L 213.4023 117.3467 L 210.8223 127.2217 L 216.0342 127.2217 Z" fill="#2cccb9"/>
		<path d="M 243.0723 124.0957 C 245.9385 125.2939 248.0752 126.1797 248.0752 129.7236 C 248.0752 133.084 245.8867 135.2207 242.4727 135.2207 C 238.9043 135.2207 237.0273 132.6934 237.1064 129.2275 L 238.7734 129.2275 C 238.748 131.6768 239.7637 133.71 242.4473 133.71 C 244.8184 133.71 246.3809 132.1992 246.3809 129.7754 C 246.3809 126.8301 244.2461 126.3623 242.0049 125.4766 C 239.373 124.4346 237.4961 123.2617 237.4961 120.1357 C 237.4961 116.9561 239.3984 114.7422 242.5781 114.7422 C 245.626 114.7422 247.6309 116.8525 247.5547 119.9268 L 245.9131 119.9268 C 246.0166 117.7646 244.7402 116.2529 242.5518 116.2529 C 240.3369 116.2529 239.1904 117.8945 239.1904 120.0303 C 239.1904 121.959 239.8154 122.7148 241.5615 123.4697 L 243.0723 124.0957 Z" fill="#2cccb9"/>
		<path d="M 279.0674 111.6719 L 276.2002 111.6719 L 276.2002 110.7158 L 280.1689 110.7158 L 280.1689 137.165 L 276.2002 137.165 L 276.2002 136.209 L 279.0674 136.209 L 279.0674 111.6719 Z" fill="#fcfcfd"/>
	</g>
</svg>